# xmcd CD database file
#
# Track frame offsets:
#	150
#	16668
#	34298
#	57323
#	67920
#	86490
#	113796
#	129385
#	149637
#	165760
#	185315
#	207755
#
# Disc length: 2996 seconds
#
# Revision: 0
# Processed by: cddbd v1.5.2PL0 Copyright (c) Steve Scherf et al.
# Submitted via: CDex 1.79
#
DISCID=980bb20c
DTITLE=Auntie Kate - Snapshots
DYEAR=1900
DGENRE=Blues
TTITLE0=Better Than Good
TTITLE1=Let's Make Love
TTITLE2=Jump Into My Fire
TTITLE3=Hurricane
TTITLE4=Storm Warning
TTITLE5=Call of The Road
TTITLE6=Snatchin' It Back
TTITLE7=I Can See Clearly Now
TTITLE8=Read Me My Rights
TTITLE9=Help The Poor
TTITLE10=Polk Salad Annie
TTITLE11=Bayou Blood
EXTD=
EXTT0=
EXTT1=
EXTT2=
EXTT3=
EXTT4=
EXTT5=
EXTT6=
EXTT7=
EXTT8=
EXTT9=
EXTT10=
EXTT11=
PLAYORDER=
